<?xml version="1.0" encoding="UTF-8"?>
<svg xmlns="http://www.w3.org/2000/svg" version="1.1" viewBox="0 0 1920 1080">
  <defs>
    <style>
      .cls-1 {
        fill: #fff;
      }
    </style>
  </defs>
  <!-- Generator: Adobe Illustrator 28.7.1, SVG Export Plug-In . SVG Version: 1.2.0 Build 142)  -->
  <g>
    <g id="Layer_1">
      <path d="M828.37,574.78c.52-1.21,1.13-2.38,1.55-3.62,5.32-15.89,10.24-31.94,16.05-47.65,3.91-10.56-2.95-20.66-10.25-24.03-4.5-2.08-9.2-3.72-13.8-5.6-6.97-2.85-10.22-10.38-7.14-17.24.42-.94,2.65-1.52,4.04-1.52,12.84.03,25.67.12,38.5.42,3.2.08,4.79-.97,5.79-4.03,6.37-19.56,12.92-39.07,19.34-58.62,2.58-7.86,1.34-11.14-5.91-15.09-4.56-2.48-9.32-4.58-14.02-6.8-2.87-1.36-3.84-3.48-3.71-6.69.39-9.45-1.44-8.55,8.85-8.55,33.77.01,67.54-.02,101.31-.06,4.36,0,4.41-.02,4.43,4.42.05,10.58-.62,11.56-10.58,15.47-1.51.59-3.01,1.18-4.53,1.75-8.47,3.21-13.65,9.42-16.85,17.75-7.14,18.55-14.51,37.01-21.76,55.52-.45,1.15-.67,2.39-1.12,4.06,1.68.18,2.99.43,4.3.43,14.57.01,29.14,0,43.71-.04,4.4-.01,4.54.08,4.54,4.36,0,9.6-.31,9.92-9.44,13.52-4.83,1.91-9.55,4.08-14.27,6.24-2.5,1.14-3.75,3.32-3.11,5.96,1.68,6.93,2.97,14.05,5.55,20.65,18.44,47.15,37.16,94.19,55.79,141.27.41,1.02.9,2.01,1.74,3.88,1.1-2.15,1.94-3.47,2.48-4.91,12.46-33.47,24.85-66.95,37.33-100.41,6.38-17.11,12.89-34.17,19.34-51.25.53-1.4,1.02-2.83,1.45-4.26,1.63-5.53.22-9.08-4.87-11.86-2.22-1.22-4.57-2.21-6.9-3.22-2.76-1.2-5.58-2.25-8.33-3.46-6.5-2.84-8.61-7.35-6.33-14.16.3-.88,2.25-1.71,3.44-1.72,11.22-.1,22.44,0,33.65,0,28.34-.02,56.67-.04,85.01-.16,2.76-.01,3.57.88,3.56,3.59-.03,11.71.16,12.09-11.19,15.63-11.88,3.71-20.91,10.04-25.06,22.27-1.26,3.71-3.06,7.24-4.65,10.83-15.29,34.69-30.61,69.37-45.87,104.08-11.53,26.23-22.93,52.53-34.49,78.75-9.05,20.51-18.31,40.93-27.33,61.45-1.18,2.67-2.8,3.6-5.54,3.58-13.88-.1-27.75-.07-41.63-.17-3.09-.02-5.57-.73-7.12-4.2-8.07-18.03-16.47-35.92-24.68-53.89-16.62-36.37-33.2-72.76-49.79-109.14-3.6-7.89-7.19-15.78-10.81-23.66-.46-1.01-1.04-1.96-1.98-3.7-1,1.94-1.77,3.14-2.28,4.45-9.79,25.21-19.56,50.42-29.32,75.64-2.42,6.25-4.9,12.48-7.22,18.77-.88,2.4-2.26,3.43-4.88,3.41-12.95-.12-25.91-.15-38.86-.08-2.55.01-4.01-.85-4.97-3.25-6.09-15.23-12.29-30.43-18.45-45.64-12.4-30.64-24.81-61.28-37.19-91.93-14.33-35.47-28.65-70.95-42.94-106.44-3.54-8.79-6.82-17.69-10.46-26.43-2.35-5.65-7.25-8.89-12.48-11.51-3.19-1.6-6.61-2.74-9.9-4.17-3.43-1.49-5.2-4.06-4.98-7.91.13-2.31.15-4.62.17-6.93.02-2.34,1.14-3.16,3.47-3.13,10.75.13,21.51.16,32.26.15,34-.04,68-.08,102.01-.23,3.13-.01,3.79.97,4.24,4.1,1.17,8.15-3.02,11.88-9.87,14.23-3.05,1.05-6.01,2.42-8.9,3.86-5.13,2.54-7.13,5.71-5.74,11.2,2.36,9.27,5.12,18.46,8.25,27.5,14.07,40.62,28.34,81.18,42.52,121.76,1.92,5.49,3.8,10.99,5.7,16.49.38-.03.76-.05,1.13-.08ZM775.5,587.05c4.36-1.07,9.6-2.02,14.6-3.66,7.84-2.58,15.31-6.03,20.82-12.5,2.85-3.34,4.72-7.08,3.08-11.77-1.75-4.99-5.47-7.12-10.37-7.9-8.23-1.3-15.73,1.41-23.14,4.31-6.61,2.58-12.8,5.94-17.4,11.59-5.57,6.84-3.61,15.46,4.34,18.4,2.23.82,4.73.92,8.06,1.53ZM940.18,678.61c9.6-8.1,21.4-10.37,31.86-15.54-8.21,7.79-16.61,15.16-25.08,22.45-2.08,1.8-3.37,3.47-.66,5.77.6-.18,1.18-.28,1.7-.51,10.25-4.47,20.42-9.14,30.78-13.36,4.64-1.89,8.85-5.63,14.51-4.3.41.1.98-.47,1.68-.85-1.1-2.47-2.14-4.82-3.34-7.51-7.87,7.35-17.83,9.06-26.57,13.36,6.43-6.05,13.02-11.81,19.65-17.53,3.83-3.31,3.89-3.62,1.83-8.11-1.07-2.35-2.23-2.17-3.9-.59-1.21,1.15-2.52,2.36-4.02,3.03-11.08,4.91-22.2,9.73-33.36,14.45-1.48.63-3.28.66-4.94.7-2.19.05-3.93.1-2.42,3.06.83,1.62,1.41,3.37,2.27,5.47ZM962.68,712.95c13.66-1.45,25.98-6.09,36.08-15.68,3.08-2.92,5.16-6.51,3.26-10.87-1.88-4.32-5.95-5.08-10.13-5.31-.91-.05-1.85.07-2.76.2-9.16,1.33-17.74,4.42-25.43,9.47-3.88,2.54-7.7,5.67-10.42,9.37-4.13,5.62-.68,12.05,6.27,12.81,1.03.11,2.08.02,3.12.02ZM912.6,614.6c9.41-7.97,21.2-10.34,31.73-15.5-.07.63-.32.95-.63,1.22-8.08,7.07-16.17,14.12-24.24,21.19-1.81,1.59-4.09,3.19-.73,5.93,7.89-3.41,15.81-7.16,23.98-10.27,7.59-2.89,14.31-8.5,23.13-7.84.37.03.77-.45,1.36-.82-.8-1.92-1.42-3.91-2.45-5.65-.35-.59-2.39-.99-2.57-.73-2.63,3.89-7.14,4.51-10.9,6.34-4.34,2.11-8.88,3.84-13.33,5.74,6.8-6.88,13.92-13.06,20.99-19.31,1.63-1.44,1.23-5.95-.93-7.61-2.08-1.59-2.84.61-3.86,1.95-.45.59-1.28.96-2,1.27-11.1,4.86-22.18,9.78-33.36,14.47-2.07.87-4.53.84-6.81,1.14-1.85.24-2.89.9-1.96,2.94.82,1.77,1.65,3.53,2.59,5.55ZM765.87,437.58c-1.44,1.35-2.37,2.17-3.24,3.06-.78.79-1.36,1.86-2.26,2.46-11.64,7.69-23.32,15.32-34.98,22.97-2.37,1.56-4.68,3.19-6.77,4.61.55,4.21,2.89,4.05,5.81,3.52,14.59-2.63,29.2-5.15,43.82-7.6,1.53-.26,3.17.25,4.77.33,1.25.06,2.5.01,4.06.01-1.17-3.41-1.98-5.93-2.89-8.4-.81-2.19-2.57-2.47-3.46-.52-1.31,2.9-3.67,3.16-6.14,3.65-3.16.63-6.31,1.29-9.47,1.9-4.89.94-9.78,1.85-15.39,2.9.75-.84.91-1.12,1.16-1.28,7.24-4.51,14.43-9.09,21.78-13.4,1.33-.78,3.34-.43,5.03-.59.95-.09,1.89-.15,3.33-.26-1.73-4.47-3.24-8.39-5.16-13.36ZM795.77,514.65c-3.18,1.23-6.62,2.5-10.01,3.91-.59.24-1.4,1.28-1.26,1.63.29.74,1.04,1.65,1.75,1.79,1.07.22,2.26-.12,3.4-.27,2.91-.38,4.89.65,5.79,3.88-.95.5-1.8,1.08-2.73,1.44-10.85,4.23-21.69,8.52-32.61,12.57-3.27,1.21-6.47,3.99-10.4,1.47-.42-.27-1.42.38-2.58.72,1.76,4.48,3.42,8.71,5.29,13.46,1.17-.91,2.03-1.5,2.81-2.19,1.3-1.15,2.36-2.83,3.87-3.46,8.2-3.42,16.5-6.59,24.77-9.82,4.89-1.9,9.8-3.75,14.75-5.63,2.35,3.94,0,5.87-2.54,7.64-1.82,1.26-3.1,2.51-1,4.77,3.31-1.26,6.67-2.41,9.9-3.86.63-.28,1.29-1.89,1.04-2.54-3.29-8.47-6.74-16.88-10.24-25.52ZM784.44,485.15c-3.23,1.24-6.47,2.38-9.6,3.77-.76.34-1.16,1.51-1.72,2.29,1.03.5,2.02,1.28,3.09,1.44,1.2.17,2.66-.69,3.68-.27,1.43.58,2.55,1.93,3.8,2.94-.96.81-1.78,1.94-2.89,2.37-11.91,4.7-23.83,9.37-35.83,13.84-1.73.64-3.88.12-5.84.19-.86.03-1.8.03-2.53.39-.31.16-.41,1.29-.22,1.84,1.16,3.25,2.36,6.49,3.69,9.68.93,2.24,2.79,2.14,3.44.21.91-2.69,2.94-3.36,5.06-4.2,3.43-1.36,6.87-2.69,10.31-4.02,9.35-3.62,18.69-7.24,28.09-10.88,1.78,2.28,1.49,4.23-.35,5.97-1,.95-2.37,1.55-3.2,2.61-.52.66-.35,1.86-.48,2.82.82.12,1.76.55,2.45.3,3.32-1.18,6.57-2.55,9.72-3.79-3.6-9.28-7.04-18.16-10.67-27.51ZM925.53,582.71c.41.19.82.38,1.23.57-.49,1.27-.95,2.55-1.47,3.82-.39.96-.84,1.9-1.26,2.85,1.13-.02,2.37.25,3.37-.12,2.7-1,5.33-2.21,7.93-3.46.71-.34,1.19-1.15,1.78-1.74-.82-.43-1.61-1.18-2.46-1.24-1.85-.14-3.77.13-4.15-2.8,4.33-1.87,8.61-3.84,12.99-5.56,1.27-.5,2.81-.3,4.23-.42-.1,1.96.1,4.02-.43,5.86-.29,1-1.97,1.53-2.74,2.5-.48.61-.43,1.63-.61,2.47.71.14,1.54.6,2.1.37,3.26-1.32,6.45-2.8,9.71-4.25-2.75-6.14-5.33-11.89-7.89-17.61-3.37,1.99-6.24,3.98-9.35,5.45-5.74,2.72-11.5,5.45-17.47,7.59-6.59,2.37-12.34,7.45-20.01,6.56-.34-.04-.74.47-1.42.92,2.72,6.23,5.42,12.42,8.28,18.97,3.88-1.71,7.45-3.26,10.98-4.9.48-.23,1.13-1.17,1-1.44-.31-.62-.99-1.36-1.61-1.45-.85-.13-1.78.28-2.67.49-4.37,1.01-6.9-.68-7.96-5.59,5.93-2.6,11.92-5.22,17.91-7.85ZM879.34,537.82c.8,1.77,1.61,3.43,2.31,5.13.86,2.12,2.38,2.06,3.33.51,1.76-2.87,4.52-3.44,7.37-3.84,1.01-.14,2.77.14,3.07.77.91,1.87,2.36,5.14,1.64,5.82-2.02,1.94-4.97,3.01-7.66,4.14-1.14.48-2.57.26-4.38.39,1.59,3.68,2.93,6.79,4.15,9.62,15.17-10.19,29.94-20.1,45.57-30.6-2.79-1.62-5.05-4.07-6.89-3.78-5.06.79-9.87,3.07-14.91,4.12-10.44,2.18-20.38,6.74-31.31,6.7-.72,0-1.44.63-2.3,1.02ZM917.85,494.96c-.54-.44-1.08-.88-1.62-1.31-1.32,1.94-2.3,4.32-4.05,5.73-3.4,2.74-7.24,4.93-10.89,7.37-8.72,5.83-17.47,11.63-26.11,17.57-.82.57-.98,2.1-1.44,3.19,1.03.28,2.15.98,3.07.78,8.18-1.82,16.28-3.98,24.48-5.67,8.11-1.67,15.82-5.58,24.45-4.56.5.06,1.09-.64,1.73-1.04-.65-1.54-1.19-2.94-1.82-4.29-1.77-3.78-1.77-3.75-4.68-.71-.54.57-1.26,1.13-1.99,1.33-8.48,2.33-16.97,4.59-25.46,6.87,7.01-5.22,14.28-9.83,21.63-14.3.97-.59,2.4-.82,3.54-.66,2.8.4,3.49-.73,2.53-3.09-1-2.45-2.22-4.8-3.35-7.2ZM967.8,620.46c-1.21.59-2.13,1.06-3.07,1.47-10.89,4.74-21.74,9.55-32.7,14.12-1.94.81-4.3.56-6.46.89-.91.14-1.79.5-2.9.83,1.62,3.74,3.02,6.98,4.59,10.6,1.04-.66,1.91-1.12,2.67-1.71,1.75-1.35,3.32-2.95,5.19-4.09,1.85-1.12,3.98-1.79,5.99-2.66,9.82-4.26,19.64-8.52,29.43-12.77,1.56,2.92,1.28,3.55-1.71,6.12-1.07.92-1.81,2.24-2.7,3.37.32.33.65.67.97,1,3.71-1.57,7.42-3.14,10.94-4.62-3.31-7.54-6.39-14.58-9.59-21.88-3.7,1.64-7.22,3.19-10.73,4.75-.03.42-.06.84-.09,1.27,1.29.23,2.57.61,3.87.67,2.34.1,5.2-1.34,6.3,2.66ZM782.85,481.3c-1.33-3.5-2.46-6.5-3.62-9.5-.93-2.4-2.19-2.5-4-.59-1.13,1.2-2.4,2.52-3.88,3.11-11.89,4.73-23.82,9.37-35.8,13.86-1.65.62-3.71.51-5.52.27-2.37-.3-3.53.54-2.76,2.68,1.23,3.44,2.65,6.8,4.17,10.65,1.14-.87,2.01-1.54,2.88-2.2,1.42-1.08,2.69-2.55,4.29-3.19,11.47-4.56,22.98-9.02,34.56-13.31,2.11-.78,4.58-.59,6.87-.93.87-.13,1.69-.5,2.82-.84ZM898.36,581.81c4.32-1.91,8.34-3.69,12.28-5.43-.64-3.04-2.34-2.63-4.13-2.18-4.92,1.23-7.3-.24-8.42-5.33,9.25-4.02,18.51-8.14,27.85-12.05,5.18-2.17,10.52-3.97,16.07-6.04-.63-1.61-1.45-3.86-2.37-6.07-1.28-3.1-2.26-3.16-4.46-.49-.62.76-1.46,1.46-2.35,1.86-9.48,4.22-18.94,8.5-28.53,12.46-3.82,1.58-7.42,4.46-12.1,3.16-.29-.08-1.66,1.73-1.46,2.23,2.36,5.86,4.92,11.65,7.61,17.89ZM935.31,666.9c2.28-1.77,3.91-3.59,5.96-4.52,10.9-4.96,21.87-9.76,32.9-14.44,1.87-.8,4.1-.86,6.18-1.07,2-.19,3.11-.85,2.29-3.03-.65-1.72-1.34-3.43-2.1-5.11-1-2.22-2.17-2.78-4.05-.62-1.08,1.24-2.55,2.31-4.05,2.97-10.42,4.62-20.89,9.11-31.35,13.64-2.38,1.03-4.57,2.39-7.49,1.42-1.59-.53-3.06.39-2.07,2.58,1.13,2.51,2.31,4.99,3.79,8.17Z"/>
      <path class="cls-1" d="M775.5,587.05c-3.34-.61-5.83-.71-8.06-1.53-7.96-2.94-9.92-11.56-4.34-18.4,4.61-5.66,10.79-9.01,17.4-11.59,7.41-2.89,14.91-5.61,23.14-4.31,4.91.78,8.63,2.91,10.37,7.9,1.64,4.69-.24,8.42-3.08,11.77-5.51,6.47-12.99,9.93-20.82,12.5-5,1.65-10.24,2.59-14.6,3.66ZM768.36,580.04c2.01-.35,3.09-.37,4.04-.74,10.85-4.16,21.73-8.26,32.49-12.66,2.55-1.04,5.78-2.8,4.44-6.38-1.35-3.6-4.88-2.68-7.52-1.82-7.53,2.47-15.01,5.13-22.38,8.05-4.36,1.73-8.59,3.89-12.63,6.29-1.1.65-2.04,3.09-1.67,4.28.42,1.37,2.38,2.26,3.21,2.96Z"/>
      <path class="cls-1" d="M940.18,678.61c-.86-2.09-1.43-3.84-2.27-5.47-1.51-2.96.23-3.01,2.42-3.06,1.66-.04,3.46-.07,4.94-.7,11.16-4.72,22.28-9.54,33.36-14.45,1.5-.66,2.81-1.87,4.02-3.03,1.66-1.59,2.82-1.76,3.9.59,2.05,4.49,2,4.8-1.83,8.11-6.62,5.72-13.22,11.48-19.65,17.53,8.74-4.3,18.69-6.01,26.57-13.36,1.2,2.7,2.24,5.04,3.34,7.51-.71.37-1.27.94-1.68.85-5.66-1.34-9.87,2.4-14.51,4.3-10.35,4.22-20.52,8.89-30.78,13.36-.52.23-1.1.33-1.7.51-2.71-2.3-1.43-3.97.66-5.77,8.47-7.3,16.87-14.67,25.08-22.45-10.46,5.16-22.25,7.43-31.86,15.54Z"/>
      <path class="cls-1" d="M962.68,712.95c-1.04,0-2.09.1-3.12-.02-6.96-.76-10.41-7.19-6.27-12.81,2.72-3.7,6.54-6.83,10.42-9.37,7.69-5.05,16.28-8.14,25.43-9.47.91-.13,1.84-.25,2.76-.2,4.18.22,8.25.98,10.13,5.31,1.9,4.37-.18,7.95-3.26,10.87-10.1,9.59-22.42,14.23-36.08,15.68ZM959.09,708.21c1.65-.43,2.7-.57,3.65-.97,10.18-4.33,20.36-8.68,30.5-13.11,1.35-.59,2.71-1.46,3.64-2.56.7-.83,1.12-2.36.86-3.36-.18-.68-1.79-1.41-2.72-1.37-2.04.09-4.18.36-6.07,1.1-6.86,2.72-13.68,5.55-20.4,8.58-3.67,1.65-7.22,3.62-10.59,5.81-.96.62-1.65,2.6-1.45,3.79.15.91,1.89,1.57,2.59,2.09Z"/>
      <path class="cls-1" d="M912.6,614.6c-.95-2.02-1.78-3.78-2.59-5.55-.94-2.03.11-2.7,1.96-2.94,2.29-.3,4.75-.27,6.81-1.14,11.18-4.69,22.26-9.61,33.36-14.47.72-.32,1.55-.68,2-1.27,1.02-1.34,1.78-3.53,3.86-1.95,2.16,1.65,2.56,6.17.93,7.61-7.07,6.25-14.2,12.44-20.99,19.31,4.45-1.9,8.98-3.63,13.33-5.74,3.76-1.83,8.27-2.44,10.9-6.34.17-.26,2.22.15,2.57.73,1.03,1.74,1.66,3.72,2.45,5.65-.59.37-.99.85-1.36.82-8.81-.65-15.53,4.95-23.13,7.84-8.16,3.11-16.08,6.86-23.98,10.27-3.35-2.74-1.08-4.34.73-5.93,8.07-7.08,16.16-14.13,24.24-21.19.31-.27.56-.59.63-1.22-10.53,5.16-22.32,7.53-31.73,15.5Z"/>
      <path class="cls-1" d="M765.87,437.58c1.92,4.97,3.44,8.89,5.16,13.36-1.44.11-2.38.17-3.33.26-1.7.16-3.7-.19-5.03.59-7.35,4.31-14.54,8.9-21.78,13.4-.24.15-.41.44-1.16,1.28,5.61-1.06,10.51-1.96,15.39-2.9,3.16-.61,6.31-1.27,9.47-1.9,2.47-.49,4.83-.75,6.14-3.65.88-1.95,2.64-1.67,3.46.52.92,2.47,1.72,4.99,2.89,8.4-1.56,0-2.82.05-4.06-.01-1.59-.08-3.24-.58-4.77-.33-14.62,2.45-29.23,4.97-43.82,7.6-2.92.53-5.26.69-5.81-3.52,2.09-1.42,4.4-3.06,6.77-4.61,11.66-7.66,23.34-15.28,34.98-22.97.9-.59,1.48-1.66,2.26-2.46.87-.89,1.81-1.71,3.24-3.06Z"/>
      <path class="cls-1" d="M795.77,514.65c3.5,8.64,6.95,17.05,10.24,25.52.25.65-.41,2.26-1.04,2.54-3.23,1.45-6.59,2.6-9.9,3.86-2.11-2.27-.82-3.51,1-4.77,2.54-1.76,4.89-3.7,2.54-7.64-4.95,1.89-9.86,3.73-14.75,5.63-8.28,3.23-16.57,6.4-24.77,9.82-1.51.63-2.56,2.31-3.87,3.46-.78.68-1.63,1.28-2.81,2.19-1.87-4.75-3.53-8.98-5.29-13.46,1.15-.35,2.16-.99,2.58-.72,3.93,2.52,7.13-.26,10.4-1.47,10.92-4.05,21.75-8.35,32.61-12.57.93-.36,1.78-.93,2.73-1.44-.9-3.22-2.88-4.25-5.79-3.88-1.13.15-2.33.49-3.4.27-.71-.15-1.47-1.05-1.75-1.79-.13-.35.68-1.39,1.26-1.63,3.38-1.41,6.82-2.68,10.01-3.91Z"/>
      <path class="cls-1" d="M784.44,485.15c3.63,9.35,7.07,18.23,10.67,27.51-3.14,1.25-6.4,2.61-9.72,3.79-.69.25-1.63-.18-2.45-.3.14-.96-.03-2.16.48-2.82.83-1.05,2.2-1.66,3.2-2.61,1.84-1.74,2.13-3.69.35-5.97-9.4,3.64-18.75,7.26-28.09,10.88-3.44,1.33-6.88,2.66-10.31,4.02-2.12.84-4.15,1.51-5.06,4.2-.65,1.92-2.51,2.03-3.44-.21-1.33-3.19-2.53-6.43-3.69-9.68-.2-.55-.1-1.68.22-1.84.73-.36,1.67-.36,2.53-.39,1.96-.07,4.11.45,5.84-.19,12-4.46,23.93-9.13,35.83-13.84,1.1-.44,1.93-1.57,2.89-2.37-1.25-1.02-2.37-2.36-3.8-2.94-1.01-.41-2.48.44-3.68.27-1.08-.15-2.07-.93-3.09-1.44.56-.79.96-1.96,1.72-2.29,3.13-1.39,6.37-2.53,9.6-3.77Z"/>
      <path class="cls-1" d="M925.53,582.71c-5.99,2.62-11.98,5.25-17.91,7.85,1.06,4.91,3.59,6.6,7.96,5.59.89-.21,1.83-.62,2.67-.49.62.09,1.3.83,1.61,1.45.13.27-.51,1.21-1,1.44-3.53,1.65-7.1,3.19-10.98,4.9-2.86-6.55-5.56-12.74-8.28-18.97.68-.46,1.08-.96,1.42-.92,7.68.89,13.42-4.19,20.01-6.56,5.96-2.14,11.73-4.87,17.47-7.59,3.11-1.47,5.98-3.46,9.35-5.45,2.56,5.72,5.13,11.47,7.89,17.61-3.26,1.45-6.45,2.93-9.71,4.25-.56.23-1.39-.23-2.1-.37.19-.84.13-1.87.61-2.47.77-.97,2.45-1.49,2.74-2.5.53-1.84.33-3.89.43-5.86-1.42.12-2.96-.08-4.23.42-4.38,1.72-8.66,3.68-12.99,5.56.38,2.93,2.3,2.66,4.15,2.8.84.06,1.64.81,2.46,1.24-.59.59-1.07,1.4-1.78,1.74-2.6,1.26-5.23,2.47-7.93,3.46-1,.37-2.24.1-3.37.12.42-.95.87-1.89,1.26-2.85.51-1.26.98-2.54,1.47-3.82-.41-.19-.82-.38-1.23-.57Z"/>
      <path class="cls-1" d="M879.34,537.82c.86-.4,1.58-1.03,2.3-1.02,10.93.05,20.87-4.51,31.31-6.7,5.04-1.05,9.85-3.33,14.91-4.12,1.84-.29,4.1,2.16,6.89,3.78-15.63,10.5-30.4,20.41-45.57,30.6-1.22-2.83-2.56-5.94-4.15-9.62,1.81-.13,3.24.09,4.38-.39,2.7-1.13,5.64-2.2,7.66-4.14.72-.69-.73-3.95-1.64-5.82-.31-.63-2.06-.91-3.07-.77-2.85.4-5.61.97-7.37,3.84-.95,1.55-2.47,1.61-3.33-.51-.69-1.7-1.51-3.36-2.31-5.13ZM902.08,543.4c4.96-3.22,9.47-6.14,13.98-9.06-.15-.29-.3-.58-.45-.88-5.25,1.38-10.5,2.76-15.97,4.19.88,2.06,1.54,3.62,2.44,5.74Z"/>
      <path class="cls-1" d="M917.85,494.96c1.13,2.4,2.35,4.75,3.35,7.2.96,2.36.28,3.5-2.53,3.09-1.14-.16-2.57.07-3.54.66-7.35,4.48-14.62,9.09-21.63,14.3,8.49-2.28,16.99-4.54,25.46-6.87.73-.2,1.45-.76,1.99-1.33,2.91-3.04,2.9-3.07,4.68.71.63,1.35,1.17,2.75,1.82,4.29-.64.4-1.23,1.1-1.73,1.04-8.63-1.02-16.34,2.88-24.45,4.56-8.2,1.69-16.3,3.85-24.48,5.67-.92.2-2.04-.5-3.07-.78.46-1.09.62-2.62,1.44-3.19,8.64-5.95,17.39-11.75,26.11-17.57,3.65-2.44,7.49-4.63,10.89-7.37,1.75-1.41,2.72-3.79,4.05-5.73.54.44,1.08.88,1.62,1.31Z"/>
      <path class="cls-1" d="M967.8,620.46c-1.09-4-3.95-2.56-6.3-2.66-1.3-.05-2.58-.43-3.87-.67.03-.42.06-.84.09-1.27,3.52-1.56,7.03-3.11,10.73-4.75,3.2,7.3,6.29,14.34,9.59,21.88-3.51,1.49-7.23,3.05-10.94,4.62-.32-.33-.65-.67-.97-1,.89-1.13,1.62-2.45,2.7-3.37,2.99-2.57,3.27-3.2,1.71-6.12-9.79,4.25-19.61,8.51-29.43,12.77-2.01.87-4.14,1.54-5.99,2.66-1.87,1.13-3.45,2.74-5.19,4.09-.76.59-1.62,1.05-2.67,1.71-1.57-3.62-2.97-6.87-4.59-10.6,1.11-.33,1.99-.69,2.9-.83,2.16-.33,4.52-.08,6.46-.89,10.96-4.57,21.81-9.38,32.7-14.12.94-.41,1.85-.89,3.07-1.47Z"/>
      <path class="cls-1" d="M782.85,481.3c-1.13.34-1.96.71-2.82.84-2.29.34-4.75.15-6.87.93-11.57,4.29-23.08,8.76-34.56,13.31-1.6.64-2.87,2.1-4.29,3.19-.87.67-1.75,1.33-2.88,2.2-1.52-3.84-2.94-7.21-4.17-10.65-.77-2.14.39-2.99,2.76-2.68,1.81.23,3.86.34,5.52-.27,11.98-4.49,23.91-9.12,35.8-13.86,1.48-.59,2.75-1.91,3.88-3.11,1.81-1.92,3.07-1.81,4,.59,1.16,3,2.29,6.01,3.62,9.5Z"/>
      <path class="cls-1" d="M898.36,581.81c-2.69-6.24-5.26-12.02-7.61-17.89-.2-.5,1.17-2.31,1.46-2.23,4.68,1.3,8.28-1.58,12.1-3.16,9.59-3.97,19.05-8.25,28.53-12.46.89-.39,1.73-1.1,2.35-1.86,2.2-2.67,3.18-2.61,4.46.49.92,2.21,1.75,4.46,2.37,6.07-5.55,2.07-10.89,3.87-16.07,6.04-9.35,3.91-18.6,8.03-27.85,12.05,1.12,5.09,3.49,6.56,8.42,5.33,1.79-.45,3.49-.86,4.13,2.18-3.93,1.74-7.95,3.52-12.28,5.43Z"/>
      <path class="cls-1" d="M935.31,666.9c-1.48-3.18-2.65-5.66-3.79-8.17-.99-2.19.48-3.11,2.07-2.58,2.92.97,5.11-.39,7.49-1.42,10.46-4.53,20.93-9.02,31.35-13.64,1.51-.67,2.98-1.74,4.05-2.97,1.88-2.16,3.04-1.6,4.05.62.76,1.68,1.45,3.39,2.1,5.11.83,2.18-.29,2.84-2.29,3.03-2.08.2-4.3.27-6.18,1.07-11.02,4.68-22,9.48-32.9,14.44-2.04.93-3.68,2.76-5.96,4.52Z"/>
      <path d="M768.36,580.04c-.83-.71-2.79-1.6-3.21-2.96-.37-1.19.57-3.63,1.67-4.28,4.04-2.4,8.26-4.56,12.63-6.29,7.37-2.92,14.85-5.59,22.38-8.05,2.63-.86,6.17-1.78,7.52,1.82,1.34,3.58-1.89,5.33-4.44,6.38-10.76,4.39-21.64,8.5-32.49,12.66-.95.36-2.03.38-4.04.74Z"/>
      <path d="M959.09,708.21c-.7-.52-2.44-1.18-2.59-2.09-.2-1.19.49-3.16,1.45-3.79,3.37-2.19,6.93-4.16,10.59-5.81,6.73-3.03,13.55-5.86,20.4-8.58,1.88-.75,4.02-1.01,6.07-1.1.93-.04,2.54.69,2.72,1.37.26,1-.16,2.53-.86,3.36-.92,1.1-2.29,1.98-3.64,2.56-10.14,4.43-20.32,8.78-30.5,13.11-.94.4-2,.54-3.65.97Z"/>
      <path d="M902.08,543.4c-.9-2.12-1.56-3.68-2.44-5.74,5.47-1.44,10.72-2.81,15.97-4.19.15.29.3.58.45.88-4.51,2.92-9.01,5.84-13.98,9.06Z"/>
    </g>
  </g>
</svg>