<?xml version="1.0" encoding="UTF-8"?>
<svg xmlns="http://www.w3.org/2000/svg" version="1.1" viewBox="0 0 1920 1080">
  <defs>
    <style>
      .cls-1 {
        fill: #fff;
      }
    </style>
  </defs>
  <!-- Generator: Adobe Illustrator 28.7.1, SVG Export Plug-In . SVG Version: 1.2.0 Build 142)  -->
  <g>
    <g id="Layer_1">
      <path d="M901.97,575.62c.05-.12.11-.24.15-.36.53-1.59,1.02-3.19,1.6-4.76.39-1.06-.29-2.07-1.03-2.4-.45-.21-.92-.37-1.38-.56-.7-.28-1.02-1.04-.71-1.72.04-.09.27-.15.4-.15,1.28,0,2.57.01,3.85.04.32,0,.48-.1.58-.4.64-1.96,1.29-3.91,1.93-5.86.26-.79.13-1.11-.59-1.51-.46-.25-.93-.46-1.4-.68-.29-.14-.38-.35-.37-.67.04-.95-.14-.86.89-.85,3.38,0,6.75,0,10.13,0,.44,0,.44,0,.44.44,0,1.06-.06,1.16-1.06,1.55-.15.06-.3.12-.45.17-.85.32-1.36.94-1.69,1.77-.71,1.85-1.45,3.7-2.18,5.55-.04.11-.07.24-.11.41.17.02.3.04.43.04,1.46,0,2.91,0,4.37,0,.44,0,.45,0,.45.44,0,.96-.03.99-.94,1.35-.48.19-.95.41-1.43.62-.25.11-.37.33-.31.6.17.69.3,1.4.56,2.06,1.84,4.72,3.72,9.42,5.58,14.13.04.1.09.2.17.39.11-.22.19-.35.25-.49,1.25-3.35,2.49-6.7,3.73-10.04.64-1.71,1.29-3.42,1.93-5.13.05-.14.1-.28.14-.43.16-.55.02-.91-.49-1.19-.22-.12-.46-.22-.69-.32-.28-.12-.56-.23-.83-.35-.65-.28-.86-.73-.63-1.42.03-.09.22-.17.34-.17,1.12-.01,2.24,0,3.37,0,2.83,0,5.67,0,8.5-.02.28,0,.36.09.36.36,0,1.17.02,1.21-1.12,1.56-1.19.37-2.09,1-2.51,2.23-.13.37-.31.72-.46,1.08-1.53,3.47-3.06,6.94-4.59,10.41-1.15,2.62-2.29,5.25-3.45,7.87-.9,2.05-1.83,4.09-2.73,6.15-.12.27-.28.36-.55.36-1.39,0-2.78,0-4.16-.02-.31,0-.56-.07-.71-.42-.81-1.8-1.65-3.59-2.47-5.39-1.66-3.64-3.32-7.28-4.98-10.91-.36-.79-.72-1.58-1.08-2.37-.05-.1-.1-.2-.2-.37-.1.19-.18.31-.23.45-.98,2.52-1.96,5.04-2.93,7.56-.24.63-.49,1.25-.72,1.88-.09.24-.23.34-.49.34-1.3-.01-2.59-.01-3.89,0-.26,0-.4-.09-.5-.33-.61-1.52-1.23-3.04-1.84-4.56-1.24-3.06-2.48-6.13-3.72-9.19-1.43-3.55-2.86-7.1-4.29-10.64-.35-.88-.68-1.77-1.05-2.64-.24-.57-.73-.89-1.25-1.15-.32-.16-.66-.27-.99-.42-.34-.15-.52-.41-.5-.79.01-.23.01-.46.02-.69,0-.23.11-.32.35-.31,1.08.01,2.15.02,3.23.01,3.4,0,6.8,0,10.2-.02.31,0,.38.1.42.41.12.81-.3,1.19-.99,1.42-.31.1-.6.24-.89.39-.51.25-.71.57-.57,1.12.24.93.51,1.85.82,2.75,1.41,4.06,2.83,8.12,4.25,12.18.19.55.38,1.1.57,1.65.04,0,.08,0,.11,0ZM896.68,576.85c.44-.11.96-.2,1.46-.37.78-.26,1.53-.6,2.08-1.25.28-.33.47-.71.31-1.18-.17-.5-.55-.71-1.04-.79-.82-.13-1.57.14-2.31.43-.66.26-1.28.59-1.74,1.16-.56.68-.36,1.55.43,1.84.22.08.47.09.81.15ZM913.15,586c.96-.81,2.14-1.04,3.19-1.55-.82.78-1.66,1.52-2.51,2.25-.21.18-.34.35-.07.58.06-.02.12-.03.17-.05,1.03-.45,2.04-.91,3.08-1.34.46-.19.89-.56,1.45-.43.04,0,.1-.05.17-.08-.11-.25-.21-.48-.33-.75-.79.73-1.78.91-2.66,1.34.64-.61,1.3-1.18,1.96-1.75.38-.33.39-.36.18-.81-.11-.23-.22-.22-.39-.06-.12.12-.25.24-.4.3-1.11.49-2.22.97-3.34,1.45-.15.06-.33.07-.49.07-.22,0-.39.01-.24.31.08.16.14.34.23.55ZM915.4,589.44c1.37-.14,2.6-.61,3.61-1.57.31-.29.52-.65.33-1.09-.19-.43-.59-.51-1.01-.53-.09,0-.18,0-.28.02-.92.13-1.77.44-2.54.95-.39.25-.77.57-1.04.94-.41.56-.07,1.21.63,1.28.1.01.21,0,.31,0ZM910.39,579.6c.94-.8,2.12-1.03,3.17-1.55,0,.06-.03.1-.06.12-.81.71-1.62,1.41-2.42,2.12-.18.16-.41.32-.07.59.79-.34,1.58-.72,2.4-1.03.76-.29,1.43-.85,2.31-.78.04,0,.08-.05.14-.08-.08-.19-.14-.39-.25-.56-.03-.06-.24-.1-.26-.07-.26.39-.71.45-1.09.63-.43.21-.89.38-1.33.57.68-.69,1.39-1.31,2.1-1.93.16-.14.12-.6-.09-.76-.21-.16-.28.06-.39.19-.04.06-.13.1-.2.13-1.11.49-2.22.98-3.34,1.45-.21.09-.45.08-.68.11-.18.02-.29.09-.2.29.08.18.16.35.26.56ZM895.72,561.9c-.14.13-.24.22-.32.31-.08.08-.14.19-.23.25-1.16.77-2.33,1.53-3.5,2.3-.24.16-.47.32-.68.46.05.42.29.4.58.35,1.46-.26,2.92-.52,4.38-.76.15-.03.32.02.48.03.12,0,.25,0,.41,0-.12-.34-.2-.59-.29-.84-.08-.22-.26-.25-.35-.05-.13.29-.37.32-.61.36-.32.06-.63.13-.95.19-.49.09-.98.18-1.54.29.08-.08.09-.11.12-.13.72-.45,1.44-.91,2.18-1.34.13-.08.33-.04.5-.06.09,0,.19-.01.33-.03-.17-.45-.32-.84-.52-1.34ZM898.71,569.61c-.32.12-.66.25-1,.39-.06.02-.14.13-.13.16.03.07.1.16.18.18.11.02.23-.01.34-.03.29-.04.49.07.58.39-.09.05-.18.11-.27.14-1.09.42-2.17.85-3.26,1.26-.33.12-.65.4-1.04.15-.04-.03-.14.04-.26.07.18.45.34.87.53,1.35.12-.09.2-.15.28-.22.13-.11.24-.28.39-.35.82-.34,1.65-.66,2.48-.98.49-.19.98-.37,1.47-.56.23.39,0,.59-.25.76-.18.13-.31.25-.1.48.33-.13.67-.24.99-.39.06-.03.13-.19.1-.25-.33-.85-.67-1.69-1.02-2.55ZM897.57,566.66c-.32.12-.65.24-.96.38-.08.03-.12.15-.17.23.1.05.2.13.31.14.12.02.27-.07.37-.03.14.06.25.19.38.29-.1.08-.18.19-.29.24-1.19.47-2.38.94-3.58,1.38-.17.06-.39.01-.58.02-.09,0-.18,0-.25.04-.03.02-.04.13-.02.18.12.33.24.65.37.97.09.22.28.21.34.02.09-.27.29-.34.51-.42.34-.14.69-.27,1.03-.4.93-.36,1.87-.72,2.81-1.09.18.23.15.42-.04.6-.1.09-.24.16-.32.26-.05.07-.03.19-.05.28.08.01.18.05.24.03.33-.12.66-.25.97-.38-.36-.93-.7-1.82-1.07-2.75ZM911.68,576.41s.08.04.12.06c-.05.13-.1.26-.15.38-.04.1-.08.19-.13.29.11,0,.24.03.34-.01.27-.1.53-.22.79-.35.07-.03.12-.11.18-.17-.08-.04-.16-.12-.25-.12-.19-.01-.38.01-.42-.28.43-.19.86-.38,1.3-.56.13-.05.28-.03.42-.04-.01.2,0,.4-.04.59-.03.1-.2.15-.27.25-.05.06-.04.16-.06.25.07.01.15.06.21.04.33-.13.64-.28.97-.42-.28-.61-.53-1.19-.79-1.76-.34.2-.62.4-.93.55-.57.27-1.15.54-1.75.76-.66.24-1.23.74-2,.66-.03,0-.07.05-.14.09.27.62.54,1.24.83,1.9.39-.17.75-.33,1.1-.49.05-.02.11-.12.1-.14-.03-.06-.1-.14-.16-.15-.08-.01-.18.03-.27.05-.44.1-.69-.07-.8-.56.59-.26,1.19-.52,1.79-.78ZM907.06,571.93c.08.18.16.34.23.51.09.21.24.21.33.05.18-.29.45-.34.74-.38.1-.01.28.01.31.08.09.19.24.51.16.58-.2.19-.5.3-.77.41-.11.05-.26.03-.44.04.16.37.29.68.42.96,1.52-1.02,2.99-2.01,4.56-3.06-.28-.16-.51-.41-.69-.38-.51.08-.99.31-1.49.41-1.04.22-2.04.67-3.13.67-.07,0-.14.06-.23.1ZM910.91,567.64c-.05-.04-.11-.09-.16-.13-.13.19-.23.43-.4.57-.34.27-.72.49-1.09.74-.87.58-1.75,1.16-2.61,1.76-.08.06-.1.21-.14.32.1.03.21.1.31.08.82-.18,1.63-.4,2.45-.57.81-.17,1.58-.56,2.44-.46.05,0,.11-.06.17-.1-.07-.15-.12-.29-.18-.43-.18-.38-.18-.38-.47-.07-.05.06-.13.11-.2.13-.85.23-1.7.46-2.55.69.7-.52,1.43-.98,2.16-1.43.1-.06.24-.08.35-.07.28.04.35-.07.25-.31-.1-.24-.22-.48-.33-.72ZM915.91,580.19c-.12.06-.21.11-.31.15-1.09.47-2.17.95-3.27,1.41-.19.08-.43.06-.65.09-.09.01-.18.05-.29.08.16.37.3.7.46,1.06.1-.07.19-.11.27-.17.17-.13.33-.3.52-.41.19-.11.4-.18.6-.27.98-.43,1.96-.85,2.94-1.28.16.29.13.35-.17.61-.11.09-.18.22-.27.34.03.03.06.07.1.1.37-.16.74-.31,1.09-.46-.33-.75-.64-1.46-.96-2.19-.37.16-.72.32-1.07.47,0,.04,0,.08,0,.13.13.02.26.06.39.07.23,0,.52-.13.63.27ZM897.42,566.27c-.13-.35-.25-.65-.36-.95-.09-.24-.22-.25-.4-.06-.11.12-.24.25-.39.31-1.19.47-2.38.94-3.58,1.39-.17.06-.37.05-.55.03-.24-.03-.35.05-.28.27.12.34.27.68.42,1.06.11-.09.2-.15.29-.22.14-.11.27-.26.43-.32,1.15-.46,2.3-.9,3.46-1.33.21-.08.46-.06.69-.09.09-.01.17-.05.28-.08ZM908.97,576.33c.43-.19.83-.37,1.23-.54-.06-.3-.23-.26-.41-.22-.49.12-.73-.02-.84-.53.93-.4,1.85-.81,2.79-1.21.52-.22,1.05-.4,1.61-.6-.06-.16-.15-.39-.24-.61-.13-.31-.23-.32-.45-.05-.06.08-.15.15-.24.19-.95.42-1.89.85-2.85,1.25-.38.16-.74.45-1.21.32-.03,0-.17.17-.15.22.24.59.49,1.16.76,1.79ZM912.66,584.83c.23-.18.39-.36.6-.45,1.09-.5,2.19-.98,3.29-1.44.19-.08.41-.09.62-.11.2-.02.31-.09.23-.3-.07-.17-.13-.34-.21-.51-.1-.22-.22-.28-.4-.06-.11.12-.25.23-.41.3-1.04.46-2.09.91-3.13,1.36-.24.1-.46.24-.75.14-.16-.05-.31.04-.21.26.11.25.23.5.38.82Z"/>
      <path class="cls-1" d="M896.68,576.85c-.33-.06-.58-.07-.81-.15-.8-.29-.99-1.16-.43-1.84.46-.57,1.08-.9,1.74-1.16.74-.29,1.49-.56,2.31-.43.49.08.86.29,1.04.79.16.47-.02.84-.31,1.18-.55.65-1.3.99-2.08,1.25-.5.16-1.02.26-1.46.37ZM895.97,576.15c.2-.04.31-.04.4-.07,1.09-.42,2.17-.83,3.25-1.27.26-.1.58-.28.44-.64-.13-.36-.49-.27-.75-.18-.75.25-1.5.51-2.24.81-.44.17-.86.39-1.26.63-.11.07-.2.31-.17.43.04.14.24.23.32.3Z"/>
      <path class="cls-1" d="M913.15,586c-.09-.21-.14-.38-.23-.55-.15-.3.02-.3.24-.31.17,0,.35,0,.49-.07,1.12-.47,2.23-.95,3.34-1.45.15-.07.28-.19.4-.3.17-.16.28-.18.39.06.21.45.2.48-.18.81-.66.57-1.32,1.15-1.96,1.75.87-.43,1.87-.6,2.66-1.34.12.27.22.5.33.75-.07.04-.13.09-.17.08-.57-.13-.99.24-1.45.43-1.04.42-2.05.89-3.08,1.34-.05.02-.11.03-.17.05-.27-.23-.14-.4.07-.58.85-.73,1.69-1.47,2.51-2.25-1.05.52-2.23.74-3.19,1.55Z"/>
      <path class="cls-1" d="M915.4,589.44c-.1,0-.21,0-.31,0-.7-.08-1.04-.72-.63-1.28.27-.37.65-.68,1.04-.94.77-.5,1.63-.81,2.54-.95.09-.01.18-.03.28-.02.42.02.83.1,1.01.53.19.44-.02.79-.33,1.09-1.01.96-2.24,1.42-3.61,1.57ZM915.04,588.96c.16-.04.27-.06.36-.1,1.02-.43,2.04-.87,3.05-1.31.13-.06.27-.15.36-.26.07-.08.11-.24.09-.34-.02-.07-.18-.14-.27-.14-.2,0-.42.04-.61.11-.69.27-1.37.56-2.04.86-.37.17-.72.36-1.06.58-.1.06-.17.26-.15.38.02.09.19.16.26.21Z"/>
      <path class="cls-1" d="M910.39,579.6c-.09-.2-.18-.38-.26-.56-.09-.2.01-.27.2-.29.23-.03.47-.03.68-.11,1.12-.47,2.23-.96,3.34-1.45.07-.03.15-.07.2-.13.1-.13.18-.35.39-.19.22.17.26.62.09.76-.71.63-1.42,1.24-2.1,1.93.45-.19.9-.36,1.33-.57.38-.18.83-.24,1.09-.63.02-.03.22.01.26.07.1.17.17.37.25.56-.06.04-.1.08-.14.08-.88-.07-1.55.5-2.31.78-.82.31-1.61.69-2.4,1.03-.34-.27-.11-.43.07-.59.81-.71,1.62-1.41,2.42-2.12.03-.03.06-.06.06-.12-1.05.52-2.23.75-3.17,1.55Z"/>
      <path class="cls-1" d="M895.72,561.9c.19.5.34.89.52,1.34-.14.01-.24.02-.33.03-.17.02-.37-.02-.5.06-.74.43-1.45.89-2.18,1.34-.02.02-.04.04-.12.13.56-.11,1.05-.2,1.54-.29.32-.06.63-.13.95-.19.25-.05.48-.08.61-.36.09-.2.26-.17.35.05.09.25.17.5.29.84-.16,0-.28,0-.41,0-.16,0-.32-.06-.48-.03-1.46.24-2.92.5-4.38.76-.29.05-.53.07-.58-.35.21-.14.44-.31.68-.46,1.17-.77,2.33-1.53,3.5-2.3.09-.06.15-.17.23-.25.09-.09.18-.17.32-.31Z"/>
      <path class="cls-1" d="M898.71,569.61c.35.86.7,1.71,1.02,2.55.03.06-.04.23-.1.25-.32.14-.66.26-.99.39-.21-.23-.08-.35.1-.48.25-.18.49-.37.25-.76-.5.19-.99.37-1.47.56-.83.32-1.66.64-2.48.98-.15.06-.26.23-.39.35-.08.07-.16.13-.28.22-.19-.48-.35-.9-.53-1.35.12-.03.22-.1.26-.07.39.25.71-.03,1.04-.15,1.09-.41,2.18-.83,3.26-1.26.09-.04.18-.09.27-.14-.09-.32-.29-.43-.58-.39-.11.01-.23.05-.34.03-.07-.01-.15-.11-.18-.18-.01-.03.07-.14.13-.16.34-.14.68-.27,1-.39Z"/>
      <path class="cls-1" d="M897.57,566.66c.36.93.71,1.82,1.07,2.75-.31.12-.64.26-.97.38-.07.02-.16-.02-.24-.03.01-.1,0-.22.05-.28.08-.11.22-.17.32-.26.18-.17.21-.37.04-.6-.94.36-1.87.73-2.81,1.09-.34.13-.69.27-1.03.4-.21.08-.41.15-.51.42-.07.19-.25.2-.34-.02-.13-.32-.25-.64-.37-.97-.02-.05,0-.17.02-.18.07-.04.17-.04.25-.04.2,0,.41.05.58-.02,1.2-.45,2.39-.91,3.58-1.38.11-.04.19-.16.29-.24-.13-.1-.24-.24-.38-.29-.1-.04-.25.04-.37.03-.11-.02-.21-.09-.31-.14.06-.08.1-.2.17-.23.31-.14.64-.25.96-.38Z"/>
      <path class="cls-1" d="M911.68,576.41c-.6.26-1.2.52-1.79.78.11.49.36.66.8.56.09-.02.18-.06.27-.05.06,0,.13.08.16.15.01.03-.05.12-.1.14-.35.16-.71.32-1.1.49-.29-.65-.56-1.27-.83-1.9.07-.05.11-.1.14-.09.77.09,1.34-.42,2-.66.6-.21,1.17-.49,1.75-.76.31-.15.6-.35.93-.55.26.57.51,1.15.79,1.76-.33.14-.65.29-.97.42-.06.02-.14-.02-.21-.04.02-.08.01-.19.06-.25.08-.1.25-.15.27-.25.05-.18.03-.39.04-.59-.14.01-.3,0-.42.04-.44.17-.87.37-1.3.56.04.29.23.27.42.28.08,0,.16.08.25.12-.06.06-.11.14-.18.17-.26.13-.52.25-.79.35-.1.04-.22,0-.34.01.04-.09.09-.19.13-.29.05-.13.1-.25.15-.38-.04-.02-.08-.04-.12-.06Z"/>
      <path class="cls-1" d="M907.06,571.93c.09-.04.16-.1.23-.1,1.09,0,2.09-.45,3.13-.67.5-.11.98-.33,1.49-.41.18-.03.41.22.69.38-1.56,1.05-3.04,2.04-4.56,3.06-.12-.28-.26-.59-.42-.96.18-.01.32,0,.44-.04.27-.11.56-.22.77-.41.07-.07-.07-.4-.16-.58-.03-.06-.21-.09-.31-.08-.29.04-.56.1-.74.38-.09.15-.25.16-.33-.05-.07-.17-.15-.34-.23-.51ZM909.34,572.48c.5-.32.95-.61,1.4-.91-.02-.03-.03-.06-.05-.09-.53.14-1.05.28-1.6.42.09.21.15.36.24.57Z"/>
      <path class="cls-1" d="M910.91,567.64c.11.24.24.48.33.72.1.24.03.35-.25.31-.11-.02-.26,0-.35.07-.73.45-1.46.91-2.16,1.43.85-.23,1.7-.45,2.55-.69.07-.02.14-.08.2-.13.29-.3.29-.31.47.07.06.14.12.27.18.43-.06.04-.12.11-.17.1-.86-.1-1.63.29-2.44.46-.82.17-1.63.39-2.45.57-.09.02-.2-.05-.31-.08.05-.11.06-.26.14-.32.86-.59,1.74-1.17,2.61-1.76.36-.24.75-.46,1.09-.74.18-.14.27-.38.4-.57.05.04.11.09.16.13Z"/>
      <path class="cls-1" d="M915.91,580.19c-.11-.4-.4-.26-.63-.27-.13,0-.26-.04-.39-.07,0-.04,0-.08,0-.13.35-.16.7-.31,1.07-.47.32.73.63,1.43.96,2.19-.35.15-.72.31-1.09.46-.03-.03-.06-.07-.1-.1.09-.11.16-.24.27-.34.3-.26.33-.32.17-.61-.98.43-1.96.85-2.94,1.28-.2.09-.41.15-.6.27-.19.11-.34.27-.52.41-.08.06-.16.1-.27.17-.16-.36-.3-.69-.46-1.06.11-.03.2-.07.29-.08.22-.03.45,0,.65-.09,1.1-.46,2.18-.94,3.27-1.41.09-.04.19-.09.31-.15Z"/>
      <path class="cls-1" d="M897.42,566.27c-.11.03-.2.07-.28.08-.23.03-.48.01-.69.09-1.16.43-2.31.88-3.46,1.33-.16.06-.29.21-.43.32-.09.07-.17.13-.29.22-.15-.38-.29-.72-.42-1.06-.08-.21.04-.3.28-.27.18.02.39.03.55-.03,1.2-.45,2.39-.91,3.58-1.39.15-.06.27-.19.39-.31.18-.19.31-.18.4.06.12.3.23.6.36.95Z"/>
      <path class="cls-1" d="M908.97,576.33c-.27-.62-.53-1.2-.76-1.79-.02-.05.12-.23.15-.22.47.13.83-.16,1.21-.32.96-.4,1.9-.82,2.85-1.25.09-.04.17-.11.24-.19.22-.27.32-.26.45.05.09.22.17.45.24.61-.56.21-1.09.39-1.61.6-.93.39-1.86.8-2.79,1.21.11.51.35.66.84.53.18-.04.35-.09.41.22-.39.17-.8.35-1.23.54Z"/>
      <path class="cls-1" d="M912.66,584.83c-.15-.32-.27-.57-.38-.82-.1-.22.05-.31.21-.26.29.1.51-.04.75-.14,1.05-.45,2.09-.9,3.13-1.36.15-.07.3-.17.41-.3.19-.22.3-.16.4.06.08.17.14.34.21.51.08.22-.03.28-.23.3-.21.02-.43.03-.62.11-1.1.47-2.2.95-3.29,1.44-.2.09-.37.28-.6.45Z"/>
      <path d="M895.97,576.15c-.08-.07-.28-.16-.32-.3-.04-.12.06-.36.17-.43.4-.24.83-.46,1.26-.63.74-.29,1.48-.56,2.24-.81.26-.09.62-.18.75.18.13.36-.19.53-.44.64-1.08.44-2.16.85-3.25,1.27-.1.04-.2.04-.4.07Z"/>
      <path d="M915.04,588.96c-.07-.05-.24-.12-.26-.21-.02-.12.05-.32.15-.38.34-.22.69-.42,1.06-.58.67-.3,1.35-.59,2.04-.86.19-.07.4-.1.61-.11.09,0,.25.07.27.14.03.1-.02.25-.09.34-.09.11-.23.2-.36.26-1.01.44-2.03.88-3.05,1.31-.09.04-.2.05-.36.1Z"/>
      <path d="M909.34,572.48c-.09-.21-.16-.37-.24-.57.55-.14,1.07-.28,1.6-.42.02.03.03.06.05.09-.45.29-.9.58-1.4.91Z"/>
    </g>
  </g>
</svg>